<svg width="40" height="40" viewBox="0 0 40 40" fill="none" xmlns="http://www.w3.org/2000/svg">
<path d="M26.8913 0.000325197C26.8066 0.00123237 26.7202 0.00574162 26.6346 0.0120368C23.2158 0.611119 21.3357 4.28031 21.0636 7.51621C20.6655 10.453 21.9402 14.2267 25.1166 14.8844C25.5779 14.9735 26.0562 14.933 26.5067 14.8087C30.3308 13.5069 32.0424 8.90894 31.4902 5.101C31.329 2.64074 29.5029 -0.0339076 26.8913 0.000325197ZM12.3973 0.157965C10.2716 0.210214 8.61562 2.39932 8.27879 4.45599C7.56864 8.53149 9.39522 13.5961 13.5784 14.8844C13.9702 14.9708 14.3755 14.9799 14.7713 14.9177C17.5987 14.4393 18.7964 11.2224 18.6782 8.62428C18.593 5.1983 16.8395 1.23631 13.3338 0.272387C13.0134 0.185911 12.701 0.149857 12.3973 0.157965ZM36.154 11.7331C32.4767 11.9566 29.9561 15.6816 29.5966 19.159C29.1092 21.667 30.4272 25.0227 33.2469 25.2227C37.1783 25.1731 39.8601 20.9093 39.9718 17.2401C40.2205 14.8132 38.8124 11.8674 36.154 11.7331ZM3.96618 12.5601C2.40165 12.5457 0.862888 13.497 0.351649 15.1114C-1.01235 19.4301 1.72672 24.8993 6.23275 25.8064C8.11339 26.1334 9.76584 24.6677 10.2321 22.9038C11.2203 19.131 9.19064 14.751 5.75565 13.0385C5.19604 12.7196 4.5784 12.5656 3.96618 12.5601ZM20.452 20.303C17.3852 20.3103 14.2699 21.8895 12.2838 24.2416C10.1386 26.9829 8.38139 30.1729 7.69395 33.6322C6.85876 36.1222 8.75174 38.9878 11.3741 39.005C14.5291 39.0941 17.2406 36.8951 20.3778 36.7321C23.0392 36.3195 25.4229 37.7248 27.8156 38.6446C29.8534 39.5293 32.6685 39.1905 33.709 36.9645C34.527 34.6961 33.3226 32.2773 32.3253 30.263C30.2903 26.9928 28.1102 23.5561 24.7734 21.5138C23.4365 20.6724 21.9501 20.3003 20.452 20.303Z" fill="#005792"/>
</svg>
