<svg width="40" height="46" viewBox="0 0 40 46" fill="none" xmlns="http://www.w3.org/2000/svg">
<g clip-path="url(#clip0_7_3)">
<path d="M20.0089 12.5893C14.3303 12.5893 9.74998 17.1697 9.74998 22.8482C9.74998 28.5268 14.3303 33.1072 20.0089 33.1072C25.6875 33.1072 30.2678 28.5268 30.2678 22.8482C30.2678 17.1697 25.6875 12.5893 20.0089 12.5893ZM20.0089 29.5179C16.3393 29.5179 13.3393 26.5268 13.3393 22.8482C13.3393 19.1697 16.3303 16.1786 20.0089 16.1786C23.6875 16.1786 26.6786 19.1697 26.6786 22.8482C26.6786 26.5268 23.6786 29.5179 20.0089 29.5179ZM33.0803 12.1697C33.0803 13.5 32.0089 14.5625 30.6875 14.5625C29.3571 14.5625 28.2946 13.4911 28.2946 12.1697C28.2946 10.8482 29.3661 9.77682 30.6875 9.77682C32.0089 9.77682 33.0803 10.8482 33.0803 12.1697ZM39.875 14.5982C39.7232 11.3929 38.9911 8.55361 36.6428 6.21432C34.3036 3.87503 31.4643 3.14289 28.2589 2.98218C24.9553 2.79468 15.0536 2.79468 11.75 2.98218C8.55355 3.13396 5.71427 3.86611 3.36605 6.20539C1.01784 8.54468 0.294625 11.384 0.133911 14.5893C-0.0535889 17.8929 -0.0535889 27.7947 0.133911 31.0982C0.285697 34.3036 1.01784 37.1429 3.36605 39.4822C5.71427 41.8215 8.54463 42.5536 11.75 42.7143C15.0536 42.9018 24.9553 42.9018 28.2589 42.7143C31.4643 42.5625 34.3036 41.8304 36.6428 39.4822C38.9821 37.1429 39.7143 34.3036 39.875 31.0982C40.0625 27.7947 40.0625 17.9018 39.875 14.5982ZM35.6071 34.6429C34.9107 36.3929 33.5625 37.7411 31.8036 38.4465C29.1696 39.4911 22.9196 39.25 20.0089 39.25C17.0982 39.25 10.8393 39.4822 8.21427 38.4465C6.46427 37.75 5.11605 36.4018 4.4107 34.6429C3.36605 32.009 3.60713 25.759 3.60713 22.8482C3.60713 19.9375 3.37498 13.6786 4.4107 11.0536C5.10713 9.30361 6.45534 7.95539 8.21427 7.25003C10.8482 6.20539 17.0982 6.44646 20.0089 6.44646C22.9196 6.44646 29.1786 6.21432 31.8036 7.25003C33.5536 7.94646 34.9018 9.29468 35.6071 11.0536C36.6518 13.6875 36.4107 19.9375 36.4107 22.8482C36.4107 25.759 36.6518 32.0179 35.6071 34.6429Z" fill="#005792"/>
</g>
<defs>
<clipPath id="clip0_7_3">
<rect width="40" height="45.7143" fill="white"/>
</clipPath>
</defs>
</svg>
