<svg width="190" height="243" viewBox="0 0 190 243" fill="none" xmlns="http://www.w3.org/2000/svg">
<path d="M83.673 107.743C83.6097 107.674 83.542 107.605 83.4736 107.539C80.4502 105.151 76.0219 106.306 73.1412 108.473C70.4149 110.314 68.2322 114.16 70.0357 117.276C70.3029 117.724 70.69 118.09 71.126 118.371C75.0309 120.576 80.1038 118.594 82.8489 115.322C84.767 113.37 85.632 109.88 83.673 107.743ZM72.8281 95.8572C71.2134 94.1355 68.1765 94.3824 66.2243 95.6239C62.3245 98.0485 59.4807 103.305 61.5063 107.721C61.7243 108.11 62.0164 108.452 62.3605 108.734C64.8467 110.722 68.3961 109.335 70.4602 107.317C73.2343 104.714 75.2189 100.333 73.4256 96.7172C73.2603 96.388 73.0593 96.1027 72.8281 95.8572ZM80.8044 124.087C77.901 121.207 72.953 121.873 69.8077 124.146C67.3706 125.596 65.566 129.168 67.4848 131.651C70.432 134.87 75.9454 133.939 79.0664 131.319C81.2599 129.731 82.6585 126.387 80.8044 124.087ZM56.3253 98.0435C55.1807 96.7373 53.2554 96.1662 51.5407 96.9363C46.956 98.9993 44.4519 105.31 47.0317 109.712C48.1511 111.512 50.5864 111.796 52.3917 110.879C56.2465 108.908 58.3731 103.989 57.252 99.879C57.1024 99.1798 56.7734 98.5545 56.3253 98.0435ZM62.1003 117.419C59.8272 114.885 56.2166 113.472 52.8006 113.567C48.9447 113.817 45.0042 114.72 41.6313 116.708C38.952 117.857 37.9783 121.543 39.9027 123.727C42.1611 126.405 45.9865 127.025 48.4407 129.503C50.7498 131.401 51.3481 134.414 52.3552 137.076C53.129 139.417 55.4906 141.498 58.1031 140.714C60.5862 139.714 61.6988 136.929 62.6297 134.614C63.8333 130.511 65.0677 126.166 64.2922 121.893C64.0007 120.164 63.21 118.658 62.1003 117.419Z" fill="#89C4E1"/>
<path d="M163.75 48.0465C163.687 47.9772 163.619 47.9087 163.55 47.8428C160.527 45.4545 156.099 46.6103 153.218 48.777C150.492 50.6179 148.309 54.4633 150.112 57.58C150.379 58.027 150.767 58.3939 151.203 58.6752C155.108 60.8797 160.18 58.8981 162.926 55.6258C164.843 53.674 165.708 50.1834 163.75 48.0465ZM152.905 36.1604C151.29 34.439 148.254 34.6857 146.301 35.9274C142.401 38.3517 139.557 43.6084 141.582 48.0244C141.801 48.4129 142.093 48.7551 142.437 49.0375C144.923 51.0249 148.473 49.6384 150.536 47.6198C153.311 45.0167 155.296 40.6361 153.502 37.0204C153.337 36.6911 153.136 36.4063 152.905 36.1604ZM160.881 64.3906C157.978 61.5105 153.029 62.1758 149.884 64.449C147.447 65.9004 145.642 69.4711 147.561 71.9541C150.509 75.174 156.022 74.2426 159.143 71.6227C161.337 70.0347 162.735 66.6904 160.881 64.3906ZM136.402 38.347C135.257 37.0411 133.332 36.4701 131.617 37.2397C127.032 39.3026 124.528 45.6144 127.108 50.0165C128.228 51.8149 130.663 52.0993 132.468 51.1819C136.323 49.2115 138.45 44.2926 137.329 40.1822C137.179 39.4833 136.85 38.8575 136.402 38.347ZM142.177 57.7231C139.905 55.1885 136.293 53.7761 132.877 53.8704C129.022 54.1205 125.081 55.0232 121.708 57.0114C119.029 58.1605 118.055 61.8462 119.979 64.0305C122.238 66.7089 126.063 67.3288 128.517 69.8058C130.826 71.7059 131.424 74.7187 132.431 77.38C133.206 79.7207 135.567 81.8016 138.179 81.0183C140.663 80.0182 141.776 77.2327 142.706 74.9171C143.91 70.8152 145.145 66.4693 144.369 62.1969C144.077 60.4678 143.287 58.9612 142.177 57.7231Z" fill="#89C4E1"/>
<path d="M148.949 115.026C148.886 114.956 148.818 114.888 148.75 114.822C145.727 112.434 141.298 113.59 138.417 115.757C135.691 117.597 133.509 121.442 135.311 124.56C135.579 125.006 135.966 125.373 136.402 125.655C140.307 127.858 145.379 125.878 148.125 122.605C150.043 120.653 150.908 117.162 148.949 115.026ZM138.104 103.14C136.49 101.418 133.453 101.665 131.501 102.906C127.6 105.331 124.757 110.587 126.781 115.004C126.999 115.392 127.292 115.734 127.637 116.016C130.122 118.004 133.672 116.618 135.736 114.599C138.51 111.996 140.495 107.616 138.702 104C138.535 103.671 138.336 103.385 138.104 103.14ZM146.081 131.369C143.177 128.489 138.229 129.155 135.083 131.428C132.646 132.88 130.842 136.45 132.761 138.933C135.708 142.153 141.222 141.222 144.343 138.602C146.536 137.014 147.934 133.669 146.081 131.369ZM121.602 105.326C120.456 104.02 118.531 103.449 116.816 104.219C112.232 106.282 109.728 112.593 112.308 116.995C113.427 118.794 115.862 119.079 117.668 118.161C121.523 116.19 123.649 111.272 122.528 107.161C122.379 106.462 122.049 105.837 121.602 105.326ZM127.377 124.702C125.104 122.168 121.492 120.755 118.077 120.849C114.221 121.1 110.28 122.002 106.908 123.99C104.228 125.139 103.255 128.825 105.179 131.009C107.437 133.688 111.263 134.308 113.717 136.785C116.025 138.685 116.624 141.698 117.631 144.359C118.405 146.7 120.767 148.781 123.379 147.997C125.863 146.997 126.975 144.212 127.905 141.896C129.11 137.794 130.344 133.448 129.568 129.176C129.276 127.447 128.486 125.94 127.377 124.702Z" fill="#89C4E1"/>
<path d="M74.7593 179.893C74.6958 179.824 74.6284 179.755 74.5595 179.689C71.5362 177.301 67.1076 178.457 64.227 180.624C61.5011 182.465 59.3182 186.31 61.1215 189.427C61.3881 189.874 61.776 190.241 62.2117 190.522C66.1167 192.726 71.1895 190.745 73.9346 187.472C75.8523 185.521 76.7172 182.03 74.7593 179.893ZM63.9146 168.007C62.2991 166.286 59.2628 166.532 57.3102 167.774C53.4097 170.198 50.5664 175.455 52.5916 179.871C52.8096 180.26 53.1019 180.602 53.4464 180.884C55.9321 182.872 59.4824 181.485 61.5455 179.466C64.3204 176.863 66.3054 172.483 64.5114 168.867C64.3457 168.538 64.1452 168.253 63.9146 168.007ZM71.8901 196.237C68.9868 193.357 64.0386 194.022 60.8929 196.296C58.4562 197.747 56.6516 201.318 58.5702 203.801C61.5178 207.021 67.0315 206.089 70.1526 203.469C72.3459 201.881 73.7437 198.537 71.8901 196.237ZM47.4115 170.194C46.2661 168.888 44.3409 168.317 42.6259 169.086C38.0416 171.149 35.5375 177.461 38.1173 181.863C39.2366 183.662 41.6719 183.946 43.4775 183.029C47.3321 181.058 49.4591 176.139 48.3379 172.029C48.1883 171.33 47.8593 170.704 47.4115 170.194ZM53.1859 189.57C50.9136 187.035 47.3018 185.623 43.8865 185.717C40.031 185.967 36.0901 186.87 32.7172 188.858C30.0379 190.007 29.0641 193.693 30.9885 195.877C33.2468 198.556 37.0722 199.175 39.5261 201.652C41.8349 203.553 42.4332 206.565 43.4403 209.227C44.2148 211.567 46.5764 213.648 49.1882 212.865C51.6721 211.865 52.7847 209.079 53.7149 206.764C54.9192 202.662 56.1536 198.316 55.3776 194.044C55.0861 192.314 54.2962 190.808 53.1859 189.57Z" fill="#89C4E1"/>
</svg>
