<svg width="165" height="177" viewBox="0 0 165 177" fill="none" xmlns="http://www.w3.org/2000/svg">
<path d="M59.4415 107.743C59.3781 107.673 59.3105 107.605 59.242 107.539C56.2186 105.151 51.7904 106.306 48.9096 108.473C46.1833 110.314 44.0006 114.16 45.8042 117.276C46.0713 117.724 46.4585 118.09 46.8944 118.371C50.7993 120.576 55.8722 118.594 58.6173 115.322C60.5354 113.37 61.4004 109.88 59.4415 107.743ZM48.5965 95.8571C46.9818 94.1354 43.9449 94.3823 41.9928 95.6238C38.0929 98.0484 35.2492 103.305 37.2747 107.721C37.4927 108.11 37.7849 108.452 38.129 108.734C40.6152 110.721 44.1646 109.335 46.2286 107.317C49.0027 104.714 50.9873 100.333 49.194 96.7171C49.0288 96.3878 48.8277 96.1026 48.5965 95.8571ZM56.5729 124.087C53.6695 121.207 48.7214 121.873 45.5762 124.146C43.139 125.596 41.3344 129.168 43.2532 131.651C46.2005 134.87 51.7138 133.939 54.8348 131.319C57.0284 129.731 58.4269 126.387 56.5729 124.087ZM32.0937 98.0434C30.9491 96.7371 29.0239 96.1661 27.3091 96.9361C22.7245 98.9992 20.2203 105.31 22.8001 109.712C23.9195 111.511 26.3548 111.796 28.1602 110.879C32.0149 108.908 34.1416 103.989 33.0205 99.8788C32.8709 99.1797 32.5418 98.5544 32.0937 98.0434ZM37.8687 117.419C35.5957 114.885 31.985 113.472 28.569 113.566C24.7132 113.817 20.7726 114.72 17.3998 116.707C14.7204 117.857 13.7467 121.542 15.6711 123.727C17.9296 126.405 21.7549 127.025 24.2091 129.502C26.5182 131.401 27.1165 134.414 28.1236 137.075C28.8974 139.417 31.259 141.498 33.8715 140.714C36.3546 139.714 37.4673 136.929 38.3981 134.614C39.6017 130.511 40.8361 126.165 40.0606 121.893C39.7691 120.163 38.9784 118.658 37.8687 117.419Z" fill="#89C4E1"/>
<path d="M59.4415 107.743C59.3781 107.673 59.3105 107.605 59.242 107.539C56.2186 105.151 51.7904 106.306 48.9096 108.473C46.1833 110.314 44.0006 114.16 45.8042 117.276C46.0713 117.724 46.4585 118.09 46.8944 118.371C50.7993 120.576 55.8722 118.594 58.6173 115.322C60.5354 113.37 61.4004 109.88 59.4415 107.743ZM48.5965 95.8571C46.9818 94.1354 43.9449 94.3823 41.9928 95.6238C38.0929 98.0484 35.2492 103.305 37.2747 107.721C37.4927 108.11 37.7849 108.452 38.129 108.734C40.6152 110.721 44.1646 109.335 46.2286 107.317C49.0027 104.714 50.9873 100.333 49.194 96.7171C49.0288 96.3878 48.8277 96.1026 48.5965 95.8571ZM56.5729 124.087C53.6695 121.207 48.7214 121.873 45.5762 124.146C43.139 125.596 41.3344 129.168 43.2532 131.651C46.2005 134.87 51.7138 133.939 54.8348 131.319C57.0284 129.731 58.4269 126.387 56.5729 124.087ZM32.0937 98.0434C30.9491 96.7371 29.0239 96.1661 27.3091 96.9361C22.7245 98.9992 20.2203 105.31 22.8001 109.712C23.9195 111.511 26.3548 111.796 28.1602 110.879C32.0149 108.908 34.1416 103.989 33.0205 99.8788C32.8709 99.1797 32.5418 98.5544 32.0937 98.0434ZM37.8687 117.419C35.5957 114.885 31.985 113.472 28.569 113.566C24.7132 113.817 20.7726 114.72 17.3998 116.707C14.7204 117.857 13.7467 121.542 15.6711 123.727C17.9296 126.405 21.7549 127.025 24.2091 129.502C26.5182 131.401 27.1165 134.414 28.1236 137.075C28.8974 139.417 31.259 141.498 33.8715 140.714C36.3546 139.714 37.4673 136.929 38.3981 134.614C39.6017 130.511 40.8361 126.165 40.0606 121.893C39.7691 120.163 38.9784 118.658 37.8687 117.419Z" fill="#89C4E1"/>
<path d="M139.519 48.0466C139.455 47.9773 139.388 47.9088 139.319 47.8429C136.296 45.4546 131.867 46.6104 128.986 48.7771C126.261 50.618 124.078 54.4634 125.881 57.5802C126.148 58.0272 126.535 58.394 126.971 58.6753C130.876 60.8798 135.949 58.8982 138.694 55.6259C140.612 53.6741 141.477 50.1835 139.519 48.0466ZM128.674 36.1606C127.058 34.4392 124.022 34.6858 122.07 35.9276C118.169 38.3518 115.326 43.6086 117.351 48.0245C117.569 48.413 117.861 48.7553 118.206 49.0376C120.692 51.025 124.242 49.6386 126.305 47.6199C129.08 45.0168 131.065 40.6362 129.271 37.0206C129.105 36.6913 128.905 36.4064 128.674 36.1606ZM136.65 64.3907C133.746 61.5106 128.798 62.1759 125.652 64.4491C123.216 65.9006 121.411 69.4713 123.33 71.9542C126.277 75.1741 131.791 74.2427 134.912 71.6228C137.105 70.0348 138.503 66.6905 136.65 64.3907ZM112.171 38.3471C111.025 37.0412 109.1 36.4702 107.385 37.2398C102.801 39.3027 100.297 45.6145 102.877 50.0166C103.996 51.815 106.431 52.0994 108.237 51.182C112.091 49.2116 114.219 44.2927 113.097 40.1824C112.948 39.4834 112.619 38.8576 112.171 38.3471ZM117.945 57.7232C115.673 55.1887 112.061 53.7762 108.646 53.8705C104.79 54.1206 100.85 55.0233 97.4766 57.0115C94.7973 58.1606 93.8235 61.8463 95.7479 64.0306C98.0061 66.709 101.832 67.3289 104.285 69.8059C106.594 71.706 107.193 74.7188 108.2 77.3801C108.974 79.7209 111.336 81.8017 113.948 81.0185C116.431 80.0183 117.544 77.2328 118.474 74.9172C119.679 70.8154 120.913 66.4694 120.137 62.197C119.846 60.4679 119.056 58.9613 117.945 57.7232Z" fill="#89C4E1"/>
<path d="M139.519 48.0466C139.455 47.9773 139.388 47.9088 139.319 47.8429C136.296 45.4546 131.867 46.6104 128.986 48.7771C126.261 50.618 124.078 54.4634 125.881 57.5802C126.148 58.0272 126.535 58.394 126.971 58.6753C130.876 60.8798 135.949 58.8982 138.694 55.6259C140.612 53.6741 141.477 50.1835 139.519 48.0466ZM128.674 36.1606C127.058 34.4392 124.022 34.6858 122.07 35.9276C118.169 38.3518 115.326 43.6086 117.351 48.0245C117.569 48.413 117.861 48.7553 118.206 49.0376C120.692 51.025 124.242 49.6386 126.305 47.6199C129.08 45.0168 131.065 40.6362 129.271 37.0206C129.105 36.6913 128.905 36.4064 128.674 36.1606ZM136.65 64.3907C133.746 61.5106 128.798 62.1759 125.652 64.4491C123.216 65.9006 121.411 69.4713 123.33 71.9542C126.277 75.1741 131.791 74.2427 134.912 71.6228C137.105 70.0348 138.503 66.6905 136.65 64.3907ZM112.171 38.3471C111.025 37.0412 109.1 36.4702 107.385 37.2398C102.801 39.3027 100.297 45.6145 102.877 50.0166C103.996 51.815 106.431 52.0994 108.237 51.182C112.091 49.2116 114.219 44.2927 113.097 40.1824C112.948 39.4834 112.619 38.8576 112.171 38.3471ZM117.945 57.7232C115.673 55.1887 112.061 53.7762 108.646 53.8705C104.79 54.1206 100.85 55.0233 97.4766 57.0115C94.7973 58.1606 93.8235 61.8463 95.7479 64.0306C98.0061 66.709 101.832 67.3289 104.285 69.8059C106.594 71.706 107.193 74.7188 108.2 77.3801C108.974 79.7209 111.336 81.8017 113.948 81.0185C116.431 80.0183 117.544 77.2328 118.474 74.9172C119.679 70.8154 120.913 66.4694 120.137 62.197C119.846 60.4679 119.056 58.9613 117.945 57.7232Z" fill="#89C4E1"/>
<path d="M124.718 115.026C124.655 114.956 124.587 114.888 124.518 114.822C121.495 112.433 117.066 113.59 114.185 115.756C111.46 117.597 109.277 121.442 111.08 124.559C111.347 125.006 111.735 125.373 112.17 125.655C116.076 127.858 121.148 125.877 123.894 122.605C125.811 120.653 126.676 117.162 124.718 115.026ZM113.873 103.14C112.258 101.418 109.221 101.665 107.269 102.906C103.368 105.331 100.525 110.587 102.55 115.004C102.768 115.392 103.061 115.734 103.405 116.016C105.89 118.004 109.441 116.618 111.504 114.599C114.279 111.996 116.264 107.615 114.47 103.999C114.304 103.671 114.104 103.385 113.873 103.14ZM121.849 131.369C118.946 128.489 113.997 129.155 110.852 131.428C108.415 132.88 106.61 136.45 108.529 138.933C111.477 142.153 116.99 141.222 120.111 138.602C122.305 137.014 123.703 133.669 121.849 131.369ZM97.3702 105.326C96.2246 104.02 94.2994 103.449 92.5843 104.219C88.0005 106.281 85.4967 112.593 88.0765 116.995C89.1955 118.794 91.6306 119.078 93.4362 118.161C97.291 116.19 99.4177 111.272 98.2966 107.161C98.1471 106.462 97.8179 105.837 97.3702 105.326ZM103.145 124.702C100.872 122.168 97.2603 120.755 93.8455 120.849C89.9898 121.099 86.0489 122.002 82.6762 123.99C79.9969 125.139 79.023 128.825 80.9474 131.009C83.2057 133.688 87.0312 134.308 89.485 136.785C91.7938 138.685 92.3922 141.697 93.3993 144.359C94.1738 146.7 96.5354 148.78 99.1472 147.997C101.631 146.997 102.744 144.212 103.674 141.896C104.878 137.794 106.113 133.448 105.336 129.176C105.045 127.447 104.255 125.94 103.145 124.702Z" fill="#89C4E1"/>
<path d="M124.718 115.026C124.655 114.956 124.587 114.888 124.518 114.822C121.495 112.433 117.066 113.59 114.185 115.756C111.46 117.597 109.277 121.442 111.08 124.559C111.347 125.006 111.735 125.373 112.17 125.655C116.076 127.858 121.148 125.877 123.894 122.605C125.811 120.653 126.676 117.162 124.718 115.026ZM113.873 103.14C112.258 101.418 109.221 101.665 107.269 102.906C103.368 105.331 100.525 110.587 102.55 115.004C102.768 115.392 103.061 115.734 103.405 116.016C105.89 118.004 109.441 116.618 111.504 114.599C114.279 111.996 116.264 107.615 114.47 103.999C114.304 103.671 114.104 103.385 113.873 103.14ZM121.849 131.369C118.946 128.489 113.997 129.155 110.852 131.428C108.415 132.88 106.61 136.45 108.529 138.933C111.477 142.153 116.99 141.222 120.111 138.602C122.305 137.014 123.703 133.669 121.849 131.369ZM97.3702 105.326C96.2246 104.02 94.2994 103.449 92.5843 104.219C88.0005 106.281 85.4967 112.593 88.0765 116.995C89.1955 118.794 91.6306 119.078 93.4362 118.161C97.291 116.19 99.4177 111.272 98.2966 107.161C98.1471 106.462 97.8179 105.837 97.3702 105.326ZM103.145 124.702C100.872 122.168 97.2603 120.755 93.8455 120.849C89.9898 121.099 86.0489 122.002 82.6762 123.99C79.9969 125.139 79.023 128.825 80.9474 131.009C83.2057 133.688 87.0312 134.308 89.485 136.785C91.7938 138.685 92.3922 141.697 93.3993 144.359C94.1738 146.7 96.5354 148.78 99.1472 147.997C101.631 146.997 102.744 144.212 103.674 141.896C104.878 137.794 106.113 133.448 105.336 129.176C105.045 127.447 104.255 125.94 103.145 124.702Z" fill="#89C4E1"/>
</svg>
