<svg width="62" height="56" viewBox="0 0 62 56" fill="none" xmlns="http://www.w3.org/2000/svg">
<path d="M33.3235 17.0617L35.8101 2.13136C36.0146 0.904214 37.0803 0 38.329 0C39.1363 0 39.8898 0.376756 40.3742 1.02262L42.1934 3.44463H47.8017C49.1688 3.44463 50.482 3.99361 51.4508 4.96241L53.3884 6.88925H59.4165C60.8482 6.88925 62 8.04105 62 9.47272V12.0562C62 16.8141 58.1463 20.6678 53.3884 20.6678H49.9438H48.2215H45.9287L45.3797 23.9509L33.3235 17.0617ZM44.7769 27.5678V51.6694C44.7769 53.5747 43.2376 55.114 41.3322 55.114H37.8876C35.9823 55.114 34.443 53.5747 34.443 51.6694V39.2687C31.8595 40.5928 28.9316 41.3355 25.8314 41.3355C22.7313 41.3355 19.8033 40.5928 17.2199 39.2687V51.6694C17.2199 53.5747 15.6805 55.114 13.7752 55.114H10.3306C8.4253 55.114 6.88599 53.5747 6.88599 51.6694V26.8896C3.78582 25.7163 1.35306 23.0898 0.513429 19.7312L0.104379 18.0628C-0.358492 16.222 0.761011 14.349 2.6125 13.8861C4.46398 13.4233 6.32623 14.5428 6.78911 16.3943L7.20892 18.0628C7.58568 19.5913 8.96353 20.6678 10.5459 20.6678H13.7752H15.4976H32.6992L44.7769 27.5678ZM49.9438 8.61156C49.9438 8.15478 49.7624 7.7167 49.4394 7.39371C49.1164 7.07071 48.6783 6.88925 48.2215 6.88925C47.7647 6.88925 47.3266 7.07071 47.0036 7.39371C46.6806 7.7167 46.4992 8.15478 46.4992 8.61156C46.4992 9.06835 46.6806 9.50643 47.0036 9.82942C47.3266 10.1524 47.7647 10.3339 48.2215 10.3339C48.6783 10.3339 49.1164 10.1524 49.4394 9.82942C49.7624 9.50643 49.9438 9.06835 49.9438 8.61156Z" fill="#005792"/>
</svg>
