<svg width="25" height="25" viewBox="0 0 25 25" fill="none" xmlns="http://www.w3.org/2000/svg">
<g clip-path="url(#clip0_59_29)">
<path d="M13.1543 0.141602C12.9492 0.0488281 12.7295 0 12.5 0C12.2705 0 12.0508 0.0488281 11.8457 0.141602L2.65139 4.04297C1.57717 4.49707 0.776389 5.55664 0.781272 6.83594C0.805686 11.6797 2.79787 20.542 11.211 24.5703C12.0264 24.9609 12.9737 24.9609 13.7891 24.5703C22.2022 20.542 24.1944 11.6797 24.2188 6.83594C24.2237 5.55664 23.4229 4.49707 22.3487 4.04297L13.1543 0.141602ZM7.85647 13.9746C8.09084 14.0332 8.33987 14.0625 8.59377 14.0625C10.3174 14.0625 11.7188 12.6611 11.7188 10.9375V7.8125H13.877C14.4678 7.8125 15.0098 8.14453 15.2735 8.67676L15.625 9.375H18.75C19.1797 9.375 19.5313 9.72656 19.5313 10.1562V11.7188C19.5313 13.877 17.7832 15.625 15.625 15.625H13.2813V18.1006C13.2813 18.457 12.9932 18.75 12.6319 18.75C12.544 18.75 12.4561 18.7305 12.378 18.6963L7.55862 16.6309C7.23635 16.4941 7.03127 16.1768 7.03127 15.8301C7.03127 15.6934 7.06057 15.5615 7.12405 15.4395L7.85647 13.9746ZM7.81252 7.8125H9.76565H10.1563V9.375V10.9375C10.1563 11.8018 9.45803 12.5 8.59377 12.5C7.72951 12.5 7.03127 11.8018 7.03127 10.9375V8.59375C7.03127 8.16406 7.38283 7.8125 7.81252 7.8125ZM14.0625 10.1562C14.0625 9.94905 13.9802 9.75034 13.8337 9.60382C13.6872 9.45731 13.4885 9.375 13.2813 9.375C13.0741 9.375 12.8754 9.45731 12.7288 9.60382C12.5823 9.75034 12.5 9.94905 12.5 10.1562C12.5 10.3635 12.5823 10.5622 12.7288 10.7087C12.8754 10.8552 13.0741 10.9375 13.2813 10.9375C13.4885 10.9375 13.6872 10.8552 13.8337 10.7087C13.9802 10.5622 14.0625 10.3635 14.0625 10.1562Z" fill="#005792"/>
</g>
<defs>
<clipPath id="clip0_59_29">
<rect width="25" height="25" fill="white"/>
</clipPath>
</defs>
</svg>
