<svg width="112" height="112" viewBox="0 0 112 112" fill="none" xmlns="http://www.w3.org/2000/svg">
<path d="M26.7273 111.636V101.091H16.1818V90.5455H26.7273V79.4727C19.7848 78.2424 14.0947 74.925 9.65682 69.5205C5.21894 64.1159 3 57.8545 3 50.7364C3 42.7394 5.83409 35.9508 11.5023 30.3705C17.1705 24.7902 24.003 22 32 22C39.997 22 46.8295 24.7902 52.4977 30.3705C58.1659 35.9508 61 42.7394 61 50.7364C61 57.8545 58.7811 64.1159 54.3432 69.5205C49.9053 74.925 44.2151 78.2424 37.2727 79.4727V90.5455H47.8182V101.091H37.2727V111.636H26.7273ZM32 69.4545C37.097 69.4545 41.447 67.653 45.05 64.05C48.653 60.447 50.4545 56.097 50.4545 51C50.4545 45.903 48.653 41.553 45.05 37.95C41.447 34.347 37.097 32.5455 32 32.5455C26.903 32.5455 22.553 34.347 18.95 37.95C15.347 41.553 13.5455 45.903 13.5455 51C13.5455 56.097 15.347 60.447 18.95 64.05C22.553 67.653 26.903 69.4545 32 69.4545Z" fill="#005792"/>
<path d="M112 0V30H102V17.125L82.125 36.875C83.7083 39.2083 84.9167 41.6875 85.75 44.3125C86.5833 46.9375 87 49.6667 87 52.5C87 60.1667 84.3333 66.6667 79 72C73.6667 77.3333 67.1667 80 59.5 80C51.8333 80 45.3333 77.3333 40 72C34.6667 66.6667 32 60.1667 32 52.5C32 44.8333 34.6667 38.3333 40 33C45.3333 27.6667 51.8333 25 59.5 25C62.25 25 64.9583 25.3958 67.625 26.1875C70.2917 26.9792 72.75 28.2083 75 29.875L94.875 10H82V0H112ZM59.5 35C54.6667 35 50.5417 36.7083 47.125 40.125C43.7083 43.5417 42 47.6667 42 52.5C42 57.3333 43.7083 61.4583 47.125 64.875C50.5417 68.2917 54.6667 70 59.5 70C64.3333 70 68.4583 68.2917 71.875 64.875C75.2917 61.4583 77 57.3333 77 52.5C77 47.6667 75.2917 43.5417 71.875 40.125C68.4583 36.7083 64.3333 35 59.5 35Z" fill="#005792"/>
</svg>
