<svg width="50" height="50" viewBox="0 0 50 50" fill="none" xmlns="http://www.w3.org/2000/svg">
<circle cx="25" cy="25" r="25" fill="#EDF9FC"/>
<path d="M14.3242 27.6679L23.1475 35.9052C23.5137 36.247 23.9971 36.4375 24.5 36.4375C25.0029 36.4375 25.4863 36.247 25.8525 35.9052L34.6758 27.6679C36.1602 26.2861 37 24.3476 37 22.3212V22.038C37 18.625 34.5342 15.7148 31.1699 15.1533C28.9434 14.7822 26.6777 15.5097 25.0859 17.1015L24.5 17.6875L23.9141 17.1015C22.3223 15.5097 20.0566 14.7822 17.8301 15.1533C14.4658 15.7148 12 18.625 12 22.038V22.3212C12 24.3476 12.8398 26.2861 14.3242 27.6679Z" fill="#EC4949"/>
</svg>
