<svg width="25" height="22" viewBox="0 0 25 22" fill="none" xmlns="http://www.w3.org/2000/svg">
<path d="M12.1748 4.75114C12.2737 4.8063 12.3857 4.83586 12.5 4.83586C12.6695 4.83586 12.8342 4.7708 12.9582 4.65357C12.9629 4.6483 12.9672 4.64359 12.971 4.63946C12.9783 4.63159 12.9854 4.62435 12.9903 4.61939L13.0005 4.60793L13.8697 3.63137L13.8698 3.63151M12.1748 4.75114L13.8655 3.63651C13.8636 3.63873 13.8614 3.6413 13.8591 3.64414C13.8635 3.63883 13.8672 3.63447 13.8698 3.63151M12.1748 4.75114V4.73918L12.0119 4.61697L11.9995 4.60305L11.1303 3.62649L11.1207 3.61563L11.1154 3.61031C9.87032 2.22202 7.99394 1.59003 6.16597 1.93946L12.1748 4.75114ZM13.8698 3.63151L14.2426 3.9633L14.0721 3.79286L13.8797 3.6213C13.8829 3.61772 13.8861 3.61414 13.8893 3.61057C15.1293 2.22713 17.0106 1.58994 18.839 1.93948L18.8391 1.9395C21.3455 2.41921 23.1562 4.61279 23.1562 7.16203V7.32316C23.1562 8.85374 22.5173 10.3195 21.3949 11.3614C21.3949 11.3614 21.3949 11.3615 21.3948 11.3615L12.8402 19.3058L12.5 19.6217L12.1598 19.3058L3.60515 11.3615C3.60513 11.3615 3.6051 11.3614 3.60507 11.3614C2.48265 10.3195 1.84375 8.85374 1.84375 7.32316V7.16203C1.84375 4.60735 3.6551 2.41905 6.16588 1.93948L13.8698 3.63151ZM13.8698 3.63151C13.8704 3.63083 13.871 3.63022 13.8714 3.62969L13.8698 3.63151ZM14.607 4.30706L13.7564 5.26284C13.7457 5.27579 13.736 5.28657 13.7282 5.29494C13.722 5.3016 13.716 5.3078 13.7113 5.31255L13.7039 5.32249L13.6787 5.34761C13.3647 5.66162 12.9395 5.83586 12.5 5.83586C12.0605 5.83586 11.6353 5.66162 11.3213 5.34761L11.1748 5.20117V5.1806L10.393 4.30218L10.3883 4.29748L10.3788 4.28683C9.36794 3.15343 7.84119 2.63731 6.35365 2.92169L6.35356 2.92171C4.31361 3.31131 2.84375 5.08783 2.84375 7.16203V7.32316C2.84375 8.57575 3.36692 9.77595 4.28547 10.6286L4.28555 10.6287L12.5 18.257L20.7144 10.6287L20.7145 10.6286C21.6331 9.77595 22.1562 8.57575 22.1562 7.32316V7.16203C22.1562 5.09216 20.6858 3.31116 18.6512 2.92169L14.607 4.30706ZM14.607 4.30706L14.9855 3.92864C15.9769 3.05098 17.3315 2.66942 18.6511 2.92167L14.607 4.30706ZM14.5731 4.33808C14.4252 4.423 14.2575 4.45322 14.253 3.9737L14.5966 4.31719L14.5893 4.32393L14.5731 4.33808ZM11.3677 20.4059L11.3677 20.4059L11.3639 20.4025L11.2436 20.2917L11.2419 20.2902L2.68887 12.3474L2.68881 12.3473C1.29199 11.0506 0.5 9.23039 0.5 7.32316V7.16203C0.5 3.96481 2.7706 1.22153 5.914 0.621924L5.91501 0.621728C7.70265 0.276904 9.53234 0.689437 10.9906 1.71575C11.4009 2.00764 11.7825 2.34412 12.1273 2.72967L12.504 3.15107L12.8763 2.72566C13.0644 2.51069 13.2667 2.31274 13.4839 2.12718L13.4839 2.12718L13.4863 2.12517C13.6557 1.97863 13.8278 1.8429 14.0074 1.71715L14.0085 1.71637C15.4669 0.689646 17.2973 0.276602 19.086 0.61704C22.229 1.21657 24.5 3.96439 24.5 7.16203V7.32316C24.5 9.23039 23.708 11.0506 22.3112 12.3473L22.3111 12.3474L13.7581 20.2902L13.7564 20.2917L13.6361 20.4025L13.6347 20.4037C13.3254 20.6904 12.919 20.8515 12.5 20.8515C12.0783 20.8515 11.6739 20.6935 11.3677 20.4059Z" fill="#005792" stroke="#005792"/>
</svg>
