<svg width="50" height="50" viewBox="0 0 50 50" fill="none" xmlns="http://www.w3.org/2000/svg">
<circle cx="25" cy="25" r="25" fill="#EDF9FC"/>
<path fill-rule="evenodd" clip-rule="evenodd" d="M32.95 35C30.8667 35 28.8083 34.5458 26.775 33.6375C24.7417 32.7292 22.8917 31.4417 21.225 29.775C19.5583 28.1083 18.2708 26.2583 17.3625 24.225C16.4542 22.1917 16 20.1333 16 18.05C16 17.75 16.1 17.5 16.3 17.3C16.5 17.1 16.75 17 17.05 17H21.1C21.3333 17 21.5417 17.0792 21.725 17.2375C21.9083 17.3958 22.0167 17.5833 22.05 17.8L22.7 21.3C22.7333 21.5667 22.725 21.7917 22.675 21.975C22.625 22.1583 22.5333 22.3167 22.4 22.45L19.975 24.9C20.3083 25.5167 20.7042 26.1125 21.1625 26.6875C21.6208 27.2625 22.125 27.8167 22.675 28.35C23.1917 28.8667 23.7333 29.3458 24.3 29.7875C24.8667 30.2292 25.4667 30.6333 26.1 31L28.45 28.65C28.6 28.5 28.7958 28.3875 29.0375 28.3125C29.2792 28.2375 29.5167 28.2167 29.75 28.25L33.2 28.95C33.4333 29.0167 33.625 29.1375 33.775 29.3125C33.925 29.4875 34 29.6833 34 29.9V33.95C34 34.25 33.9 34.5 33.7 34.7C33.5 34.9 33.25 35 32.95 35ZM20.675 21.35L19.025 23C18.7417 22.35 18.525 21.6917 18.375 21.025C18.225 20.3583 18.1083 19.6833 18.025 19H20.25L20.675 21.35ZM29.9625 32.625C29.2875 32.4583 28.625 32.2333 27.975 31.95L29.65 30.275L32 30.75V32.95C31.3167 32.9 30.6375 32.7917 29.9625 32.625Z" fill="black"/>
<path d="M19.025 23L20.675 21.35L20.25 19H18.025C18.1083 19.6833 18.225 20.3583 18.375 21.025C18.525 21.6917 18.7417 22.35 19.025 23Z" fill="black"/>
<path d="M27.975 31.95C28.625 32.2333 29.2875 32.4583 29.9625 32.625C30.6375 32.7917 31.3167 32.9 32 32.95V30.75L29.65 30.275L27.975 31.95Z" fill="black"/>
</svg>
