<svg width="25" height="25" viewBox="0 0 25 25" fill="none" xmlns="http://www.w3.org/2000/svg">
<g clip-path="url(#clip0_59_33)">
<path d="M14.0625 1.5625C14.0625 0.698242 13.3643 0 12.5 0C11.6357 0 10.9375 0.698242 10.9375 1.5625V12.5C10.9375 13.3643 11.6357 14.0625 12.5 14.0625C13.3643 14.0625 14.0625 13.3643 14.0625 12.5V1.5625ZM7.00684 5.88867C7.6709 5.33691 7.75879 4.35059 7.20703 3.68652C6.65527 3.02246 5.66895 2.93457 5.00488 3.48633C2.42676 5.63477 0.78125 8.87695 0.78125 12.5C0.78125 18.9697 6.03027 24.2188 12.5 24.2188C18.9697 24.2188 24.2188 18.9697 24.2188 12.5C24.2188 8.87695 22.5684 5.63477 19.9902 3.48633C19.3262 2.93457 18.3398 3.02734 17.7881 3.68652C17.2363 4.3457 17.3291 5.33691 17.9883 5.88867C19.8877 7.46582 21.0889 9.84375 21.0889 12.5C21.0889 17.2461 17.2412 21.0938 12.4951 21.0938C7.74902 21.0938 3.90137 17.2461 3.90137 12.5C3.90137 9.84375 5.10742 7.46582 7.00195 5.88867H7.00684Z" fill="#005792"/>
</g>
<defs>
<clipPath id="clip0_59_33">
<rect width="25" height="25" fill="white"/>
</clipPath>
</defs>
</svg>
